HIERARCHY
ROOT Hips
{
  OFFSET 55.8217 93.5854 21.8435
  CHANNELS 6 Xposition Yposition Zposition Zrotation Xrotation Yrotation
  JOINT spine
  {
    OFFSET 0 7.4756 0.429885
    CHANNELS 3 Zrotation Xrotation Yrotation
    JOINT spine1
    {
      OFFSET 0 9.92301 0
      CHANNELS 3 Zrotation Xrotation Yrotation
      JOINT spine2
      {
        OFFSET 0 9.50804 0
        CHANNELS 3 Zrotation Xrotation Yrotation
        JOINT Neck
        {
          OFFSET 0 24.4111 1.16384
          CHANNELS 3 Zrotation Xrotation Yrotation
          JOINT Head
          {
            OFFSET 0 7.37523 0
            CHANNELS 3 Zrotation Xrotation Yrotation
            End Site
            {
              OFFSET 0 17.8522 -5.88741
            }
          }
        }
        JOINT RightShoulder
        {
          OFFSET -4.00356 10.2679 -0.557468
          CHANNELS 3 Zrotation Xrotation Yrotation
          JOINT RightArm
          {
            OFFSET 0 13.4673 0
            CHANNELS 3 Zrotation Xrotation Yrotation
            JOINT RightArmRoll
            {
              OFFSET 0 6.79858 0
              CHANNELS 3 Zrotation Xrotation Yrotation
              JOINT RightForeArm
              {
                OFFSET 0 19.8018 0
                CHANNELS 3 Zrotation Xrotation Yrotation
                JOINT RightForeArmRoll
                {
                  OFFSET 0 7.62905 0
                  CHANNELS 3 Zrotation Xrotation Yrotation
                  JOINT RightHand
                  {
                    OFFSET 0 15.3098 0
                    CHANNELS 3 Zrotation Xrotation Yrotation
                    End Site
                    {
                      OFFSET 0 0 0
                    }
                  }
                }
              }
            }
          }
        }
        JOINT LeftShoulder
        {
          OFFSET 4.00356 10.2679 -0.557468
          CHANNELS 3 Zrotation Xrotation Yrotation
          JOINT LeftArm
          {
            OFFSET 0 13.4673 0
            CHANNELS 3 Zrotation Xrotation Yrotation
            JOINT LeftArmRoll
            {
              OFFSET 0 6.79858 0
              CHANNELS 3 Zrotation Xrotation Yrotation
              JOINT LeftForeArm
              {
                OFFSET 0 19.8018 0
                CHANNELS 3 Zrotation Xrotation Yrotation
                JOINT LeftForeArmRoll
                {
                  OFFSET 0 7.62906 0
                  CHANNELS 3 Zrotation Xrotation Yrotation
                  JOINT LeftHand
                  {
                    OFFSET 0 15.3098 0
                    CHANNELS 3 Zrotation Xrotation Yrotation
                    End Site
                    {
                      OFFSET 0 0 0
                    }
                  }
                }
              }
            }
          }
        }
      }
    }
  }
  JOINT RightUpLeg
  {
    OFFSET -6.62609 -1.21505 -1.01927
    CHANNELS 3 Zrotation Xrotation Yrotation
    JOINT RightUpLegRoll
    {
      OFFSET 0 17.9517 0
      CHANNELS 3 Zrotation Xrotation Yrotation
      JOINT RightLeg
      {
        OFFSET 0 -22.2304 0
        CHANNELS 3 Zrotation Xrotation Yrotation
        JOINT RightLegRoll
        {
          OFFSET 0 22.3032 0
          CHANNELS 3 Zrotation Xrotation Yrotation
          JOINT RightFoot
          {
            OFFSET 0 18.5636 0
            CHANNELS 3 Zrotation Xrotation Yrotation
            JOINT RightToeBase
            {
              OFFSET 0 15.5183 0
              CHANNELS 3 Zrotation Xrotation Yrotation
              End Site
              {
                OFFSET 0.00657761 7.51539 -0.866263
              }
            }
          }
        }
      }
    }
  }
  JOINT LeftUpLeg
  {
    OFFSET 6.62609 -1.21505 -1.01927
    CHANNELS 3 Zrotation Xrotation Yrotation
    JOINT LeftUpLegRoll
    {
      OFFSET 0 17.9518 0
      CHANNELS 3 Zrotation Xrotation Yrotation
      JOINT LeftLeg
      {
        OFFSET 0 22.2303 0
        CHANNELS 3 Zrotation Xrotation Yrotation
        JOINT LeftLegRoll
        {
          OFFSET 0 22.5093 0
          CHANNELS 3 Zrotation Xrotation Yrotation
          JOINT LeftFoot
          {
            OFFSET 0 18.3575 0
            CHANNELS 3 Zrotation Xrotation Yrotation
            JOINT LeftToeBase
            {
              OFFSET 0 15.5183 0
              CHANNELS 3 Zrotation Xrotation Yrotation
              End Site
              {
                OFFSET -0.029478 7.51539 -0.866263
              }
            }
          }
        }
      }
    }
  }
}
MOTION
Frames: 4
Frame Time: 0.00208333
54.424 93.2279 12.3524 0.389855 0.293842 2.27481 -0.143255 -1.91823 0.308016 -0.278925 0.165588 0.62975 -0.286575 1.81062 0.634618 -5.86543 9.16632 -3.66333 8.26429 3.78018 -4.53267 68.1991 -3.17071 -2.74061 100.317 12.8411 21.8299 5.61489e-007 -2.90997e-006 -4.77134e-006 4.7971 0.0457241 -1.27336 1.27057e-007 -2.56358e-006 -3.03814 8.02959 -4.95142 0.697674 -72.1548 -1.20738 2.13303 -99.4368 15.4652 -23.3268 2.92779e-006 5.26256e-006 -5.9143e-006 -0.212697 0.0109018 0.859703 3.86558e-006 -3.95366e-006 3.01074 -8.03023 -4.95138 -0.697653 177.398 0.677885 0.670762 180 7.01556e-015 178.964 177.252 6.80547 179.83 -2.19198e-006 -8.29823e-006 0.105061 -19.4833 69.0798 20.4501 8.13093 25.233 -3.48537 -178.248 0.81031 2.53333 4.54188e-006 -4.6773e-006 -1.00512 -2.58869 -4.9033 0.0335401 -1.83986e-006 -6.62697e-007 -0.0413265 18.453 67.7449 -19.3323 -8.1344 25.2328 3.48684 
54.4168 93.2286 12.3354 0.400269 0.302499 2.26736 -0.142919 -1.91692 0.308823 -0.278243 0.168219 0.631308 -0.285889 1.81325 0.636165 -5.90214 9.16819 -3.66185 8.30886 3.77802 -4.53676 68.167 -3.16187 -2.7335 100.335 12.8863 21.7983 5.61489e-007 -2.90997e-006 -4.77134e-006 4.80783 0.0457234 -1.2735 1.27057e-007 -2.56358e-006 -3.03821 8.02959 -4.95142 0.697674 -72.1709 -1.20571 2.13382 -99.4192 15.5131 -23.2864 2.92779e-006 5.26256e-006 -5.9143e-006 -0.240885 0.0109017 0.859592 3.86558e-006 -3.95366e-006 3.01074 -8.03023 -4.95138 -0.697653 177.384 0.712959 0.677625 180 7.01556e-015 178.964 177.254 6.8448 179.83 -2.19198e-006 -8.29823e-006 0.105475 -19.4834 69.0799 20.4501 8.13093 25.233 -3.48537 -178.265 0.830878 2.54056 4.54188e-006 -4.6773e-006 -1.00512 -2.58858 -4.92916 0.033461 -1.83986e-006 -6.62697e-007 -0.0413265 18.4432 67.7328 -19.3217 -8.1344 25.2328 3.48684 
54.4256 93.2303 12.3359 0.410678 0.311314 2.25946 -0.142635 -1.9158 0.30962 -0.277664 0.170459 0.632839 -0.285295 1.81549 0.637685 -5.93833 9.17237 -3.66004 8.35314 3.7747 -4.54044 68.1357 -3.15251 -2.7262 100.352 12.9327 21.7671 5.61489e-007 -2.90997e-006 -4.77134e-006 4.81833 0.0457227 -1.27385 1.27057e-007 -2.56358e-006 -3.03832 8.02959 -4.95142 0.697674 -72.1875 -1.20443 2.13484 -99.4002 15.5608 -23.2459 2.92779e-006 5.26256e-006 -5.9143e-006 -0.269717 0.0109017 0.859495 3.86558e-006 -3.95366e-006 3.01074 -8.03023 -4.95138 -0.697653 177.37 0.747727 0.683552 180 7.01556e-015 178.964 177.257 6.88301 179.83 -2.19198e-006 -8.29823e-006 0.105865 -19.4833 69.0798 20.4499 8.13093 25.233 -3.48537 -178.282 0.850892 2.54776 4.54188e-006 -4.6773e-006 -1.00512 -2.58869 -4.95367 0.0333014 -1.83986e-006 -6.62697e-007 -0.0413265 18.4342 67.7219 -19.312 -8.1344 25.2328 3.48684 
54.4273 93.2273 12.3578 0.421084 0.320238 2.25124 -0.142388 -1.91481 0.31041 -0.277156 0.172426 0.634351 -0.284765 1.81746 0.639187 -5.97415 9.17817 -3.658 8.3972 3.77056 -4.54383 68.105 -3.14278 -2.71877 100.368 12.9802 21.7362 5.61489e-007 -2.90997e-006 -4.77134e-006 4.82866 0.045722 -1.27434 1.27057e-007 -2.56358e-006 -3.03846 8.02959 -4.95142 0.697674 -72.2045 -1.20342 2.13603 -99.3802 15.6083 -23.2054 2.92779e-006 5.26256e-006 -5.9143e-006 -0.298999 0.0109017 0.859408 3.86558e-006 -3.95366e-006 3.01074 -8.03023 -4.95138 -0.697653 177.356 0.782281 0.688826 180 7.01556e-015 178.964 177.26 6.92043 179.83 -2.19198e-006 -8.29823e-006 0.106237 -19.4831 69.0796 20.4495 8.13093 25.233 -3.48537 -178.298 0.870518 2.55492 4.54188e-006 -4.6773e-006 -1.00512 -2.58896 -4.97724 0.0330854 -1.83986e-006 -6.62697e-007 -0.0413265 18.4257 67.7117 -19.3028 -8.1344 25.2328 3.48684 
